<mxfile host="app.diagrams.net" modified="2020-09-25T05:54:29.270Z" agent="5.0 (X11)" etag="Btufm0RKuUPeLeihX6zH" version="13.7.5" type="github">
  <diagram id="mDRA8ISjAFIraBU2ADNy" name="Page-1">
    <mxGraphModel dx="813" dy="459" grid="1" gridSize="10" guides="1" tooltips="1" connect="1" arrows="1" fold="1" page="1" pageScale="1" pageWidth="850" pageHeight="1100" math="0" shadow="0">
      <root>
        <mxCell id="0" />
        <mxCell id="1" parent="0" />
        <mxCell id="_B0YKtA3KB2mout9iakt-3" value="m&lt;sub&gt;1&lt;/sub&gt;" style="rounded=0;whiteSpace=wrap;html=1;" parent="1" vertex="1">
          <mxGeometry x="360" y="206.67" width="80" height="113.33" as="geometry" />
        </mxCell>
        <mxCell id="_B0YKtA3KB2mout9iakt-16" value="" style="rounded=1;whiteSpace=wrap;html=1;rotation=-45;" parent="1" vertex="1">
          <mxGeometry x="400" y="244.99999999999997" width="140" height="20" as="geometry" />
        </mxCell>
        <mxCell id="_B0YKtA3KB2mout9iakt-12" value="" style="ellipse;whiteSpace=wrap;html=1;aspect=fixed;" parent="1" vertex="1">
          <mxGeometry x="345" y="440" width="110" height="110" as="geometry" />
        </mxCell>
        <mxCell id="_B0YKtA3KB2mout9iakt-1" value="" style="rounded=0;whiteSpace=wrap;html=1;" parent="1" vertex="1">
          <mxGeometry x="320" y="320" width="160" height="20" as="geometry" />
        </mxCell>
        <mxCell id="_B0YKtA3KB2mout9iakt-4" value="" style="endArrow=classic;html=1;entryX=0.5;entryY=0;entryDx=0;entryDy=0;" parent="1" target="_B0YKtA3KB2mout9iakt-3" edge="1">
          <mxGeometry width="50" height="50" relative="1" as="geometry">
            <mxPoint x="400" y="180" as="sourcePoint" />
            <mxPoint x="470" y="360" as="targetPoint" />
          </mxGeometry>
        </mxCell>
        <mxCell id="_B0YKtA3KB2mout9iakt-5" value="F&lt;sub&gt;ext&lt;/sub&gt;" style="text;html=1;strokeColor=none;fillColor=none;align=center;verticalAlign=middle;whiteSpace=wrap;rounded=0;" parent="1" vertex="1">
          <mxGeometry x="380" y="160" width="40" height="20" as="geometry" />
        </mxCell>
        <mxCell id="_B0YKtA3KB2mout9iakt-6" value="" style="rounded=0;whiteSpace=wrap;html=1;" parent="1" vertex="1">
          <mxGeometry x="320" y="380" width="160" height="20" as="geometry" />
        </mxCell>
        <mxCell id="_B0YKtA3KB2mout9iakt-9" value="" style="pointerEvents=1;verticalLabelPosition=bottom;shadow=0;dashed=0;align=center;html=1;verticalAlign=top;shape=mxgraph.electrical.resistors.resistor_2;rotation=90;" parent="1" vertex="1">
          <mxGeometry x="360" y="356" width="40" height="8" as="geometry" />
        </mxCell>
        <mxCell id="_B0YKtA3KB2mout9iakt-10" value="" style="pointerEvents=1;verticalLabelPosition=bottom;shadow=0;dashed=0;align=center;html=1;verticalAlign=top;shape=mxgraph.electrical.resistors.resistor_2;rotation=90;" parent="1" vertex="1">
          <mxGeometry x="400" y="356" width="40" height="8" as="geometry" />
        </mxCell>
        <mxCell id="_B0YKtA3KB2mout9iakt-11" value="" style="triangle;whiteSpace=wrap;html=1;rotation=90;" parent="1" vertex="1">
          <mxGeometry x="340" y="400" width="120" height="120" as="geometry" />
        </mxCell>
        <mxCell id="_B0YKtA3KB2mout9iakt-13" value="" style="ellipse;whiteSpace=wrap;html=1;aspect=fixed;" parent="1" vertex="1">
          <mxGeometry x="370" y="465" width="60" height="60" as="geometry" />
        </mxCell>
        <mxCell id="_B0YKtA3KB2mout9iakt-15" value="" style="rounded=1;whiteSpace=wrap;html=1;rotation=-45;" parent="1" vertex="1">
          <mxGeometry x="411" y="264" width="90" height="10" as="geometry" />
        </mxCell>
        <mxCell id="_B0YKtA3KB2mout9iakt-17" value="" style="ellipse;whiteSpace=wrap;html=1;aspect=fixed;" parent="1" vertex="1">
          <mxGeometry x="385" y="220" width="30" height="30" as="geometry" />
        </mxCell>
        <mxCell id="_B0YKtA3KB2mout9iakt-18" value="Driving Shaft" style="text;html=1;strokeColor=none;fillColor=none;align=center;verticalAlign=middle;whiteSpace=wrap;rounded=0;" parent="1" vertex="1">
          <mxGeometry x="220" y="225" width="80" height="20" as="geometry" />
        </mxCell>
        <mxCell id="_B0YKtA3KB2mout9iakt-19" value="" style="endArrow=classic;html=1;exitX=1;exitY=0.5;exitDx=0;exitDy=0;entryX=0;entryY=0.5;entryDx=0;entryDy=0;" parent="1" source="_B0YKtA3KB2mout9iakt-18" target="_B0YKtA3KB2mout9iakt-17" edge="1">
          <mxGeometry width="50" height="50" relative="1" as="geometry">
            <mxPoint x="430" y="420" as="sourcePoint" />
            <mxPoint x="480" y="370" as="targetPoint" />
          </mxGeometry>
        </mxCell>
        <mxCell id="_B0YKtA3KB2mout9iakt-20" value="Driven Shaft" style="text;html=1;strokeColor=none;fillColor=none;align=center;verticalAlign=middle;whiteSpace=wrap;rounded=0;" parent="1" vertex="1">
          <mxGeometry x="225" y="485" width="70" height="20" as="geometry" />
        </mxCell>
        <mxCell id="_B0YKtA3KB2mout9iakt-21" value="" style="endArrow=classic;html=1;exitX=1;exitY=0.5;exitDx=0;exitDy=0;entryX=0;entryY=0.5;entryDx=0;entryDy=0;" parent="1" source="_B0YKtA3KB2mout9iakt-20" target="_B0YKtA3KB2mout9iakt-13" edge="1">
          <mxGeometry width="50" height="50" relative="1" as="geometry">
            <mxPoint x="430" y="420" as="sourcePoint" />
            <mxPoint x="480" y="370" as="targetPoint" />
          </mxGeometry>
        </mxCell>
        <mxCell id="_B0YKtA3KB2mout9iakt-22" value="Adjustable Gear" style="text;html=1;strokeColor=none;fillColor=none;align=center;verticalAlign=middle;whiteSpace=wrap;rounded=0;" parent="1" vertex="1">
          <mxGeometry x="470" y="280" width="100" height="20" as="geometry" />
        </mxCell>
        <mxCell id="_B0YKtA3KB2mout9iakt-24" value="" style="endArrow=none;html=1;exitX=0;exitY=0.5;exitDx=0;exitDy=0;entryX=0;entryY=0.5;entryDx=0;entryDy=0;strokeColor=#808080;" parent="1" source="_B0YKtA3KB2mout9iakt-13" target="_B0YKtA3KB2mout9iakt-17" edge="1">
          <mxGeometry width="50" height="50" relative="1" as="geometry">
            <mxPoint x="430" y="420" as="sourcePoint" />
            <mxPoint x="480" y="370" as="targetPoint" />
          </mxGeometry>
        </mxCell>
        <mxCell id="_B0YKtA3KB2mout9iakt-26" value="" style="endArrow=none;html=1;strokeColor=#808080;exitX=1;exitY=0;exitDx=0;exitDy=0;entryX=1;entryY=0;entryDx=0;entryDy=0;" parent="1" source="_B0YKtA3KB2mout9iakt-17" target="_B0YKtA3KB2mout9iakt-23" edge="1">
          <mxGeometry width="50" height="50" relative="1" as="geometry">
            <mxPoint x="430" y="420" as="sourcePoint" />
            <mxPoint x="480" y="370" as="targetPoint" />
          </mxGeometry>
        </mxCell>
        <mxCell id="_B0YKtA3KB2mout9iakt-27" value="" style="endArrow=none;html=1;strokeColor=#808080;exitX=1;exitY=0.5;exitDx=0;exitDy=0;entryX=1;entryY=0.5;entryDx=0;entryDy=0;" parent="1" source="_B0YKtA3KB2mout9iakt-13" target="_B0YKtA3KB2mout9iakt-23" edge="1">
          <mxGeometry width="50" height="50" relative="1" as="geometry">
            <mxPoint x="430" y="420" as="sourcePoint" />
            <mxPoint x="480" y="370" as="targetPoint" />
          </mxGeometry>
        </mxCell>
        <mxCell id="_B0YKtA3KB2mout9iakt-30" value="" style="endArrow=none;html=1;strokeColor=#808080;exitX=0.788;exitY=1.009;exitDx=0;exitDy=0;exitPerimeter=0;entryX=0.788;entryY=0.016;entryDx=0;entryDy=0;entryPerimeter=0;" parent="1" source="_B0YKtA3KB2mout9iakt-16" target="_B0YKtA3KB2mout9iakt-16" edge="1">
          <mxGeometry width="50" height="50" relative="1" as="geometry">
            <mxPoint x="420" y="270" as="sourcePoint" />
            <mxPoint x="470" y="220" as="targetPoint" />
          </mxGeometry>
        </mxCell>
        <mxCell id="_B0YKtA3KB2mout9iakt-28" value="" style="pointerEvents=1;verticalLabelPosition=bottom;shadow=0;dashed=0;align=center;html=1;verticalAlign=top;shape=mxgraph.electrical.resistors.resistor_2;rotation=-45;" parent="1" vertex="1">
          <mxGeometry x="449.83" y="241.61" width="57.3" height="9" as="geometry" />
        </mxCell>
        <mxCell id="_B0YKtA3KB2mout9iakt-23" value="m&lt;sub&gt;2&lt;/sub&gt;" style="ellipse;whiteSpace=wrap;html=1;aspect=fixed;" parent="1" vertex="1">
          <mxGeometry x="438" y="262" width="25" height="25" as="geometry" />
        </mxCell>
        <mxCell id="iF7whiRlGx6Ogszfcxvr-1" value="k&lt;sub&gt;1&lt;/sub&gt;" style="text;html=1;strokeColor=none;fillColor=none;align=center;verticalAlign=middle;whiteSpace=wrap;rounded=0;" vertex="1" parent="1">
          <mxGeometry x="380" y="350" width="40" height="20" as="geometry" />
        </mxCell>
        <mxCell id="iF7whiRlGx6Ogszfcxvr-3" value="k&lt;sub&gt;2&lt;/sub&gt;" style="text;html=1;strokeColor=none;fillColor=none;align=center;verticalAlign=middle;whiteSpace=wrap;rounded=0;" vertex="1" parent="1">
          <mxGeometry x="470" y="250" width="40" height="20" as="geometry" />
        </mxCell>
      </root>
    </mxGraphModel>
  </diagram>
</mxfile>
